<svg version="1.1" xmlns="http://www.w3.org/2000/svg" viewBox="0 0 267 443.2331902718163" width="267" height="443.2331902718163">
  <!-- svg-source:excalidraw -->
  
  <defs>
    <style class="style-fonts">
      @font-face {
        font-family: "Virgil";
        src: url("https://excalidraw.com/Virgil.woff2");
      }
      @font-face {
        font-family: "Cascadia";
        src: url("https://excalidraw.com/Cascadia.woff2");
      }
    </style>
  </defs>
  <g stroke-linecap="round" transform="translate(10.333333333333485 10) rotate(0 116.5 76)"><path d="M32 0 M32 0 C74.74 -1.07, 118.4 -2.05, 201 0 M32 0 C83.06 -0.18, 135.19 -1.04, 201 0 M201 0 C223.42 -0.19, 233.89 11.45, 233 32 M201 0 C223.93 0.7, 235.17 9.23, 233 32 M233 32 C231.56 61.15, 233.5 91.89, 233 120 M233 32 C232.68 64.88, 233.14 96.02, 233 120 M233 120 C233.45 140.25, 222.91 152.47, 201 152 M233 120 C234.63 141.42, 223.2 153.87, 201 152 M201 152 C146.32 153.57, 93.25 155.3, 32 152 M201 152 C138.27 153, 72.77 151.76, 32 152 M32 152 C10.95 150.15, -1.29 141.92, 0 120 M32 152 C11.75 149.89, 0.93 139.78, 0 120 M0 120 C-1.75 100.65, 0.3 78.83, 0 32 M0 120 C0.04 101.5, 0.94 84.12, 0 32 M0 32 C1.34 10.81, 12.48 -0.36, 32 0 M0 32 C-0.62 11.92, 10.33 1.77, 32 0" stroke="#364fc7" stroke-width="4" fill="none"></path></g><g transform="translate(59.32993062337255 51) rotate(0 63.59166717529297 35)"><text x="63.59166717529297" y="0" font-family="Virgil, Segoe UI Emoji" font-size="28px" fill="#364fc7" text-anchor="middle" style="white-space: pre;" direction="ltr" dominant-baseline="text-before-edge">Standard</text><text x="63.59166717529297" y="35" font-family="Virgil, Segoe UI Emoji" font-size="28px" fill="#364fc7" text-anchor="middle" style="white-space: pre;" direction="ltr" dominant-baseline="text-before-edge">Scaler</text></g><g stroke-linecap="round" transform="translate(10 272.10014306151584) rotate(0 123.5 80.56652360515022)"><path d="M32 0 M32 0 C91.98 1.55, 150.71 0.79, 215 0 M32 0 C100.37 0.76, 171.27 0.04, 215 0 M215 0 C237.05 1.92, 247.8 8.99, 247 32 M215 0 C234.39 0.32, 244.87 9.18, 247 32 M247 32 C248.27 62.65, 246.18 97.96, 247 129.13 M247 32 C247.15 59.91, 245.64 87.34, 247 129.13 M247 129.13 C246.96 150.44, 235.74 162.9, 215 161.13 M247 129.13 C248.2 152.01, 236.49 163.22, 215 161.13 M215 161.13 C163.07 163.66, 110.97 162.66, 32 161.13 M215 161.13 C177.66 162.9, 139.5 163.28, 32 161.13 M32 161.13 C10.34 162.92, 0.56 151.81, 0 129.13 M32 161.13 C12.51 162.55, 2.16 148.57, 0 129.13 M0 129.13 C0.43 105.67, 1.23 85.58, 0 32 M0 129.13 C0.2 97.44, 0.67 66.11, 0 32 M0 32 C-1.83 11.91, 11.55 0.47, 32 0 M0 32 C0.85 10.76, 10.75 -1.91, 32 0" stroke="#364fc7" stroke-width="4" fill="none"></path></g><g transform="translate(118.12875536480715 331.4649499284685) rotate(0 28.066667556762695 18.551502145922754)"><text x="0" y="0" font-family="Virgil, Segoe UI Emoji" font-size="29.6824034334764px" fill="#364fc7" text-anchor="start" style="white-space: pre;" direction="ltr" dominant-baseline="text-before-edge">SVM</text></g><g stroke-linecap="round"><g transform="translate(135.7767529523221 181.47037959422545) rotate(0 -0.4010409859221227 33.663404081029796)"><path d="M1.08 -0.95 C1.07 10.17, -0.45 55.59, -0.95 66.79 M0.19 1.17 C0.1 12.47, -1.94 57.27, -1.88 68.27" stroke="#1864ab" stroke-width="2" fill="none"></path></g><g transform="translate(135.7767529523221 181.47037959422545) rotate(0 -0.4010409859221227 33.663404081029796)"><path d="M-13.05 39.89 C-9.44 44.65, -8.21 52.49, -1.64 69.89 M-11.56 39.19 C-8.4 50.23, -5.11 59.64, -2.82 68.48" stroke="#1864ab" stroke-width="2" fill="none"></path></g><g transform="translate(135.7767529523221 181.47037959422545) rotate(0 -0.4010409859221227 33.663404081029796)"><path d="M7.46 40.38 C6.44 45.21, 3.02 52.94, -1.64 69.89 M8.95 39.68 C5.17 50.73, 1.51 59.97, -2.82 68.48" stroke="#1864ab" stroke-width="2" fill="none"></path></g></g><mask></mask></svg>