<svg version="1.1" xmlns="http://www.w3.org/2000/svg" viewBox="0 0 717 471.9711204570383" width="717" height="471.9711204570383">
  <!-- svg-source:excalidraw -->
  
  <defs>
    <style class="style-fonts">
      @font-face {
        font-family: "Virgil";
        src: url("https://excalidraw.com/Virgil.woff2");
      }
      @font-face {
        font-family: "Cascadia";
        src: url("https://excalidraw.com/Cascadia.woff2");
      }
    </style>
  </defs>
  <g stroke-linecap="round" transform="translate(10 183.25) rotate(0 116.5 76)"><path d="M32 0 M32 0 C68.06 2.17, 107.75 0.64, 201 0 M32 0 C70.6 -0.63, 110.17 -0.57, 201 0 M201 0 C223.54 -1.93, 233.92 12.07, 233 32 M201 0 C222 -1.67, 234.12 8.85, 233 32 M233 32 C231.92 64.82, 232.29 97.34, 233 120 M233 32 C234.29 65.22, 234.47 96.8, 233 120 M233 120 C233.45 142.18, 223.04 153.69, 201 152 M233 120 C234.71 140.22, 224.46 151.41, 201 152 M201 152 C144.58 152.33, 86.59 151.01, 32 152 M201 152 C143.2 152.1, 86.86 152.41, 32 152 M32 152 C12.14 152.06, -0.36 142.88, 0 120 M32 152 C11.52 150.9, 0.5 140.09, 0 120 M0 120 C-0.72 98.08, -1.12 73.41, 0 32 M0 120 C1.24 86.29, 0.97 51.39, 0 32 M0 32 C-0.64 9.85, 11.7 0.8, 32 0 M0 32 C1.55 10.04, 10.07 1.48, 32 0" stroke="#364fc7" stroke-width="4" fill="none"></path></g><g transform="translate(58.99659729003906 224.25) rotate(0 63.59166717529297 35)"><text x="63.59166717529297" y="0" font-family="Virgil, Segoe UI Emoji" font-size="28px" fill="#364fc7" text-anchor="middle" style="white-space: pre;" direction="ltr" dominant-baseline="text-before-edge">Standard</text><text x="63.59166717529297" y="35" font-family="Virgil, Segoe UI Emoji" font-size="28px" fill="#364fc7" text-anchor="middle" style="white-space: pre;" direction="ltr" dominant-baseline="text-before-edge">Scaler</text></g><g stroke-linecap="round" transform="translate(474 169.25) rotate(0 116.5 76)"><path d="M32 0 M32 0 C83.99 -2.26, 134.93 -2.39, 201 0 M32 0 C75.94 1.45, 119.88 0.61, 201 0 M201 0 C224.2 -1.79, 234.48 11.58, 233 32 M201 0 C224.42 0.42, 234.41 9.93, 233 32 M233 32 C234.8 54.24, 232.93 78.86, 233 120 M233 32 C233.18 51.13, 232.54 69.71, 233 120 M233 120 C231.97 140.02, 222.62 151.02, 201 152 M233 120 C235.22 140.02, 221.6 150.85, 201 152 M201 152 C140.74 154.37, 78.6 154.02, 32 152 M201 152 C153.73 152.07, 106.86 151.7, 32 152 M32 152 C9.76 152.36, -1.85 141.96, 0 120 M32 152 C12.67 149.97, -1.69 142.45, 0 120 M0 120 C1.15 90.96, -1.85 59.91, 0 32 M0 120 C-0.08 102.13, 1.32 84.06, 0 32 M0 32 C-0.91 12.13, 10.86 -0.42, 32 0 M0 32 C1.57 10.99, 8.94 1.47, 32 0" stroke="#364fc7" stroke-width="4" fill="none"></path></g><g transform="translate(537 212.25) rotate(0 53.5 35)"><text x="0" y="0" font-family="Virgil, Segoe UI Emoji" font-size="28px" fill="#364fc7" text-anchor="start" style="white-space: pre;" direction="ltr" dominant-baseline="text-before-edge">One-Hot</text><text x="0" y="35" font-family="Virgil, Segoe UI Emoji" font-size="28px" fill="#364fc7" text-anchor="start" style="white-space: pre;" direction="ltr" dominant-baseline="text-before-edge">Encoder</text></g><g stroke-linecap="round" transform="translate(206.5 10) rotate(0 144 63)"><path d="M191.41 2.56 C207.95 3.92, 225.2 9.41, 238.29 14.65 C251.38 19.88, 261.75 27.2, 269.94 33.97 C278.14 40.73, 285.25 47.75, 287.47 55.24 C289.68 62.73, 287.4 71.65, 283.24 78.9 C279.08 86.14, 272.44 92.79, 262.48 98.73 C252.52 104.66, 238.15 110.36, 223.48 114.51 C208.82 118.66, 191.19 121.78, 174.49 123.61 C157.8 125.45, 140.44 126.58, 123.3 125.51 C106.15 124.43, 86.76 120.87, 71.61 117.17 C56.47 113.46, 43.3 109.24, 32.42 103.27 C21.54 97.29, 11.54 88.6, 6.31 81.3 C1.09 74.01, 0.04 66.77, 1.06 59.51 C2.08 52.25, 5.21 44.78, 12.41 37.72 C19.62 30.67, 31.64 22.58, 44.28 17.17 C56.91 11.76, 72.55 8.21, 88.23 5.27 C103.91 2.33, 119.19 -0.35, 138.34 -0.46 C157.48 -0.57, 190.59 2.83, 203.09 4.61 C215.59 6.39, 214.17 9.21, 213.34 10.2 M146.03 1.41 C162.75 0.55, 182.2 3.4, 198.56 5.79 C214.92 8.18, 231.42 10.62, 244.19 15.76 C256.95 20.9, 267.8 29.58, 275.16 36.66 C282.52 43.73, 287.02 50.85, 288.34 58.2 C289.67 65.55, 288.26 73.6, 283.11 80.77 C277.95 87.94, 268.42 94.98, 257.4 101.22 C246.37 107.46, 231.9 114.42, 216.96 118.23 C202.01 122.04, 184.64 122.97, 167.71 124.08 C150.78 125.2, 132.27 126.05, 115.37 124.9 C98.48 123.75, 81.06 121.55, 66.35 117.18 C51.65 112.82, 37.33 105.27, 27.14 98.72 C16.95 92.17, 9.79 84.8, 5.21 77.88 C0.64 70.97, -2.39 64.61, -0.3 57.22 C1.79 49.82, 9.73 40.67, 17.76 33.52 C25.78 26.36, 35 19.41, 47.85 14.3 C60.7 9.18, 78.16 5.26, 94.85 2.84 C111.54 0.41, 139.36 0.26, 147.97 -0.25 C156.59 -0.75, 146.68 -1.22, 146.53 -0.2" stroke="#862e9c" stroke-width="4" fill="none"></path></g><g transform="translate(260.568293736188 37.95227278524749) rotate(0 90.10832977294922 35)"><text x="90.10832977294922" y="0" font-family="Virgil, Segoe UI Emoji" font-size="28px" fill="#862e9c" text-anchor="middle" style="white-space: pre;" direction="ltr" dominant-baseline="text-before-edge">Data-</text><text x="90.10832977294922" y="35" font-family="Virgil, Segoe UI Emoji" font-size="28px" fill="#862e9c" text-anchor="middle" style="white-space: pre;" direction="ltr" dominant-baseline="text-before-edge">Preprocessing</text></g><g stroke-linecap="round"><g transform="translate(445.4035439220397 121.38756921658342) rotate(0 18.30598264535729 14.490465373126654)"><path d="M-0.31 0.22 C5.79 4.88, 30.67 23.36, 36.92 28.05 M1.73 -0.71 C7.64 4.17, 30.19 25.19, 35.99 29.69" stroke="#862e9c" stroke-width="2" fill="none"></path></g><g transform="translate(445.4035439220397 121.38756921658342) rotate(0 18.30598264535729 14.490465373126654)"><path d="M14.75 21.55 C21.79 24.73, 29.36 25.21, 36.36 30.35 M15.09 21.08 C21.25 24.36, 28.18 25.57, 35.58 29.01" stroke="#862e9c" stroke-width="2" fill="none"></path></g><g transform="translate(445.4035439220397 121.38756921658342) rotate(0 18.30598264535729 14.490465373126654)"><path d="M25.07 9.58 C28.73 16.66, 32.92 21.07, 36.36 30.35 M25.41 9.1 C28.58 15.98, 32.46 20.73, 35.58 29.01" stroke="#862e9c" stroke-width="2" fill="none"></path></g></g><mask></mask><g stroke-linecap="round"><g transform="translate(247.47399173119175 118.03505733187922) rotate(0 -18.40837938865218 20.549444229529968)"><path d="M-0.66 1.13 C-6.71 7.73, -31.34 32.78, -37.49 39.35 M1.2 0.67 C-4.85 7.42, -31.5 33.54, -38.02 40.43" stroke="#862e9c" stroke-width="2" fill="none"></path></g><g transform="translate(247.47399173119175 118.03505733187922) rotate(0 -18.40837938865218 20.549444229529968)"><path d="M-24.59 16.52 C-30.33 21.56, -30.74 24.33, -39.16 41.59 M-26.64 14.63 C-30.07 22.01, -32.01 28.35, -37.97 39.57" stroke="#862e9c" stroke-width="2" fill="none"></path></g><g transform="translate(247.47399173119175 118.03505733187922) rotate(0 -18.40837938865218 20.549444229529968)"><path d="M-11.06 29.85 C-19.55 32.08, -22.73 32.12, -39.16 41.59 M-13.12 27.96 C-20.03 31.72, -25.54 34.54, -37.97 39.57" stroke="#862e9c" stroke-width="2" fill="none"></path></g></g><mask></mask><g stroke-linecap="round"><g transform="translate(239.5 345.25) rotate(0 46.015319402888395 28.22570892683234)"><path d="M-0.93 -0.77 C14.49 8.52, 77.17 46.67, 92.97 56.14 M0.78 1.43 C16.01 10.83, 76.54 47.99, 92 57.23" stroke="#862e9c" stroke-width="2" fill="none"></path></g></g><mask></mask><g stroke-linecap="round"><g transform="translate(364.5 398.25) rotate(0 50.305811630282506 -31.339095700318012)"><path d="M0.42 0.32 C17.09 -9.93, 82.62 -50.87, 99.16 -61.27 M-0.82 -0.55 C16.3 -11.17, 84.85 -52.98, 101.43 -63" stroke="#862e9c" stroke-width="2" fill="none"></path></g></g><mask></mask><g stroke-linecap="round"><g transform="translate(351.11008628565514 407.9703795942255) rotate(0 -2.233467657385063 26.656790957352086)"><path d="M-0.22 0.24 C-0.99 9.12, -3.09 44.03, -3.87 52.61 M-1.8 -0.69 C-2.68 8.44, -3.61 45.15, -4.24 54" stroke="#1864ab" stroke-width="2" fill="none"></path></g><g transform="translate(351.11008628565514 407.9703795942255) rotate(0 -2.233467657385063 26.656790957352086)"><path d="M-11.78 30.49 C-9.93 37.88, -8.57 48.31, -3.09 53.86 M-12.34 29.11 C-9.81 35.39, -7.97 44.46, -5.12 53.68" stroke="#1864ab" stroke-width="2" fill="none"></path></g><g transform="translate(351.11008628565514 407.9703795942255) rotate(0 -2.233467657385063 26.656790957352086)"><path d="M6.36 31.32 C1.71 38.38, -3.43 48.51, -3.09 53.86 M5.81 29.94 C2.91 36, -0.68 44.82, -5.12 53.68" stroke="#1864ab" stroke-width="2" fill="none"></path></g></g><mask></mask></svg>