<svg version="1.1" xmlns="http://www.w3.org/2000/svg" viewBox="0 0 1086.1638909195335 568.75" width="1086.1638909195335" height="568.75">
  <!-- svg-source:excalidraw -->
  
  <defs>
    <style class="style-fonts">
      @font-face {
        font-family: "Virgil";
        src: url("https://excalidraw.com/Virgil.woff2");
      }
      @font-face {
        font-family: "Cascadia";
        src: url("https://excalidraw.com/Cascadia.woff2");
      }
    </style>
  </defs>
  <g stroke-linecap="round" transform="translate(302.4138909195335 192.5) rotate(0 123.125 77.5)"><path d="M179.72 8.67 C193.04 11.89, 206.3 19.66, 216.12 26.87 C225.95 34.07, 233.62 43, 238.67 51.9 C243.71 60.8, 246.78 71.07, 246.37 80.27 C245.96 89.48, 241.84 98.68, 236.21 107.13 C230.58 115.57, 222.7 124.26, 212.57 130.92 C202.44 137.58, 188.99 143.13, 175.44 147.08 C161.9 151.03, 146.08 153.87, 131.3 154.61 C116.52 155.35, 100.79 154.1, 86.77 151.52 C72.76 148.95, 58.97 144.87, 47.21 139.16 C35.44 133.44, 23.69 125.46, 16.17 117.25 C8.65 109.03, 4.44 99.04, 2.08 89.86 C-0.28 80.68, -1.11 71.12, 1.99 62.14 C5.1 53.16, 12.52 43.9, 20.68 35.99 C28.85 28.08, 39.19 20.26, 50.99 14.7 C62.79 9.14, 77.09 5.08, 91.49 2.62 C105.9 0.17, 121 -1.62, 137.41 -0.04 C153.82 1.55, 180.15 9.35, 189.96 12.11 C199.77 14.88, 197.42 15.46, 196.29 16.58 M159.6 4.44 C173.76 6, 188.95 10.96, 200.41 16.68 C211.88 22.4, 220.85 31.03, 228.4 38.75 C235.96 46.48, 242.96 53.87, 245.76 63.05 C248.56 72.22, 248.34 84.37, 245.22 93.81 C242.09 103.25, 235.19 112.2, 227.04 119.68 C218.88 127.17, 208.25 133.35, 196.27 138.7 C184.29 144.05, 169.73 149.13, 155.16 151.8 C140.58 154.47, 123.64 155.64, 108.8 154.71 C93.97 153.79, 79.22 150.56, 66.16 146.23 C53.11 141.89, 40.47 135.75, 30.46 128.7 C20.46 121.66, 10.98 112.67, 6.13 103.97 C1.29 95.27, 0.98 85.66, 1.39 76.5 C1.8 67.33, 3.1 57.51, 8.57 48.99 C14.04 40.48, 23.81 32.5, 34.2 25.39 C44.59 18.28, 57.76 10.35, 70.91 6.33 C84.06 2.32, 98.35 1.82, 113.1 1.31 C127.84 0.81, 151.94 2.76, 159.36 3.31 C166.78 3.86, 158.1 3.17, 157.61 4.6" stroke="#364fc7" stroke-width="1" fill="none"></path></g><g transform="translate(341.1638909195335 251.25) rotate(0 81.50833129882812 22.5)"><text x="0" y="0" font-family="Virgil, Segoe UI Emoji" font-size="36px" fill="#364fc7" text-anchor="start" style="white-space: pre;" direction="ltr" dominant-baseline="text-before-edge">Scheduler</text></g><g stroke-linecap="round"><g transform="translate(533.6151073457709 239.135423779534) rotate(0 144.67327791278876 1.3566328317675982)"><path d="M-0.57 0.83 C47.84 1.02, 241.87 0.96, 289.92 1.01 M1.33 0.22 C49.72 0.62, 241.44 2.11, 289.56 2.49" stroke="#364fc7" stroke-width="1" fill="none"></path></g><g transform="translate(533.6151073457709 239.135423779534) rotate(0 144.67327791278876 1.3566328317675982)"><path d="M262.67 14.4 C268.35 8.27, 275.85 6.26, 290.47 3.66 M260.51 13.31 C268.21 10.07, 276.13 7.62, 289.58 2.63" stroke="#364fc7" stroke-width="1" fill="none"></path></g><g transform="translate(533.6151073457709 239.135423779534) rotate(0 144.67327791278876 1.3566328317675982)"><path d="M262.84 -6.12 C268.45 -6.99, 275.91 -3.74, 290.47 3.66 M260.67 -7.21 C268.18 -5.11, 276.06 -2.22, 289.58 2.63" stroke="#364fc7" stroke-width="1" fill="none"></path></g></g><mask></mask><g stroke-linecap="round"><g transform="translate(816.1638909195335 279.01228768798495) rotate(0 -135.63522236976291 1.1016081125822836)"><path d="M0.4 0.44 C-44.73 0.72, -225.37 1.42, -270.5 1.65 M-0.85 -0.37 C-46.2 0.01, -226.6 2.07, -271.67 2.57" stroke="#364fc7" stroke-width="1" fill="none"></path></g><g transform="translate(816.1638909195335 279.01228768798495) rotate(0 -135.63522236976291 1.1016081125822836)"><path d="M-242.86 -8.71 C-254.58 -4.97, -263.28 -0.51, -270.84 4.56 M-243.01 -7.62 C-255.16 -3.6, -264.59 0.48, -271.05 2.52" stroke="#364fc7" stroke-width="1" fill="none"></path></g><g transform="translate(816.1638909195335 279.01228768798495) rotate(0 -135.63522236976291 1.1016081125822836)"><path d="M-242.63 11.81 C-254.43 8.94, -263.19 6.8, -270.84 4.56 M-242.77 12.9 C-255.21 9.01, -264.73 5.18, -271.05 2.52" stroke="#364fc7" stroke-width="1" fill="none"></path></g></g><mask></mask><g stroke-linecap="round" transform="translate(803.6638909195335 190) rotate(0 136.25 75.625)"><path d="M32 0 M32 0 C94.53 1.28, 159 2.36, 240.5 0 M32 0 C107.01 0.78, 182.42 0.22, 240.5 0 M240.5 0 C262.97 -1.12, 272.9 10.32, 272.5 32 M240.5 0 C261.84 -0.42, 272.33 10.9, 272.5 32 M272.5 32 C271.33 48.17, 270.21 66.64, 272.5 119.25 M272.5 32 C272.9 64.76, 272.55 95.64, 272.5 119.25 M272.5 119.25 C271.07 142.29, 260.64 150.29, 240.5 151.25 M272.5 119.25 C270.68 139.55, 261.63 152.7, 240.5 151.25 M240.5 151.25 C187.02 150.76, 132.08 150.9, 32 151.25 M240.5 151.25 C188.43 150.76, 136.16 151.63, 32 151.25 M32 151.25 C10.04 150.98, -0.39 139.4, 0 119.25 M32 151.25 C11.84 151.51, 0.4 138.91, 0 119.25 M0 119.25 C0.67 87.27, 0.81 55.18, 0 32 M0 119.25 C1.05 85.85, 0.91 54.12, 0 32 M0 32 C1.56 9.47, 9.52 1.11, 32 0 M0 32 C2.06 11.23, 9.82 2.2, 32 0" stroke="#364fc7" stroke-width="1" fill="none"></path></g><g transform="translate(878.6638909195335 252.5) rotate(0 79.24166870117188 22.5)"><text x="0" y="0" font-family="Virgil, Segoe UI Emoji" font-size="36px" fill="#364fc7" text-anchor="start" style="white-space: pre;" direction="ltr" dominant-baseline="text-before-edge">Executor</text></g><g transform="translate(584.9138909195335 173.75) rotate(0 101.28333282470703 22.5)"><text x="0" y="0" font-family="Virgil, Segoe UI Emoji" font-size="36px" fill="#364fc7" text-anchor="start" style="white-space: pre;" direction="ltr" dominant-baseline="text-before-edge">dispatch(...)</text></g><g transform="translate(623.6638909195335 297.5) rotate(0 58.54166793823242 22.5)"><text x="0" y="0" font-family="Virgil, Segoe UI Emoji" font-size="36px" fill="#364fc7" text-anchor="start" style="white-space: pre;" direction="ltr" dominant-baseline="text-before-edge">Future</text></g><g stroke-linecap="round"><g transform="translate(356.1638909195335 178.75) rotate(0 -38.76719097876003 -37.55970575250686)"><path d="M0.86 -0.16 C-11.97 -12.76, -64.6 -62.65, -77.89 -74.96 M-0.15 -1.29 C-12.98 -13.73, -65.12 -60.98, -78.39 -73.4" stroke="#e67700" stroke-width="4" fill="none"></path></g><g transform="translate(356.1638909195335 178.75) rotate(0 -38.76719097876003 -37.55970575250686)"><path d="M-50.96 -60.44 C-56.81 -64.5, -61.33 -67.69, -79.15 -73.32 M-51.55 -62.75 C-57.8 -65.49, -64.96 -68.95, -78.37 -72.54" stroke="#e67700" stroke-width="4" fill="none"></path></g><g transform="translate(356.1638909195335 178.75) rotate(0 -38.76719097876003 -37.55970575250686)"><path d="M-64.86 -45.34 C-67.71 -52.83, -69.17 -59.36, -79.15 -73.32 M-65.44 -47.65 C-67.95 -54.34, -71.39 -61.84, -78.37 -72.54" stroke="#e67700" stroke-width="4" fill="none"></path></g></g><mask></mask><g stroke-linecap="round"><g transform="translate(573.6638909195335 45) rotate(0 -0.9580821815877698 220.5900125745684)"><path d="M-0.71 0.06 C-1.01 73.72, -1.01 367.96, -1.2 441.12" stroke="#364fc7" stroke-width="4.5" fill="none" stroke-dasharray="8 12"></path></g></g><mask></mask><g transform="translate(147.41389091953351 40) rotate(0 90.07499694824219 22.5)"><text x="0" y="0" font-family="Virgil, Segoe UI Emoji" font-size="36px" fill="#e67700" text-anchor="start" style="white-space: pre;" direction="ltr" dominant-baseline="text-before-edge">STARTED</text></g><g stroke-linecap="round"><g transform="translate(463.68108189829354 171.3097057525069) rotate(0 5.377242736313519 -46.87577495537698)"><path d="M0.51 1.13 C2.31 -14.83, 9.69 -78.74, 11.44 -94.89 M-0.69 0.68 C0.92 -15.15, 8.8 -77.37, 10.59 -93.29" stroke="#e67700" stroke-width="4" fill="none"></path></g><g transform="translate(463.68108189829354 171.3097057525069) rotate(0 5.377242736313519 -46.87577495537698)"><path d="M19.3 -63.76 C14.98 -74.77, 11.14 -86.36, 10.87 -95.01 M16.95 -64.29 C14.72 -72.95, 14 -82.22, 9.9 -93.71" stroke="#e67700" stroke-width="4" fill="none"></path></g><g transform="translate(463.68108189829354 171.3097057525069) rotate(0 5.377242736313519 -46.87577495537698)"><path d="M-1.07 -66.21 C1.8 -76.44, 5.14 -87.17, 10.87 -95.01 M-3.43 -66.74 C0.6 -74.72, 6.13 -83.24, 9.9 -93.71" stroke="#e67700" stroke-width="4" fill="none"></path></g></g><mask></mask><g stroke-linecap="round"><g transform="translate(400.0409647389765 368.0292839702096) rotate(0 -24.26445970401369 58.326938786776886)"><path d="M0.52 0.16 C-7.54 19.45, -40.83 96.92, -49.05 116.32 M-0.66 -0.8 C-8.31 18.57, -39.3 97.71, -46.9 117.45" stroke="#e67700" stroke-width="4" fill="none"></path></g><g transform="translate(400.0409647389765 368.0292839702096) rotate(0 -24.26445970401369 58.326938786776886)"><path d="M-45.98 85.67 C-47.55 93.42, -47.24 101.64, -46.35 115.65 M-46.01 86.52 C-47.12 97.61, -47.51 106.72, -46.58 117.54" stroke="#e67700" stroke-width="4" fill="none"></path></g><g transform="translate(400.0409647389765 368.0292839702096) rotate(0 -24.26445970401369 58.326938786776886)"><path d="M-26.85 93.11 C-33.11 99.14, -37.45 105.55, -46.35 115.65 M-26.88 93.96 C-34.18 102.64, -40.75 109.34, -46.58 117.54" stroke="#e67700" stroke-width="4" fill="none"></path></g></g><mask></mask><g transform="translate(408.5888939712913 10) rotate(0 61.59166717529297 22.5)"><text x="0" y="0" font-family="Virgil, Segoe UI Emoji" font-size="36px" fill="#e67700" text-anchor="start" style="white-space: pre;" direction="ltr" dominant-baseline="text-before-edge">EMPTY</text></g><g transform="translate(200.78889091953351 513.75) rotate(0 98 22.5)"><text x="0" y="0" font-family="Virgil, Segoe UI Emoji" font-size="36px" fill="#e67700" text-anchor="start" style="white-space: pre;" direction="ltr" dominant-baseline="text-before-edge">FINISHING</text></g><g stroke-linecap="round"><g transform="translate(10.240613006744752 246.01042377953377) rotate(0 144.87773531410517 -0.2535802944186685)"><path d="M0.8 -0.27 C48.84 -0.15, 239.86 -0.12, 287.81 0 M-0.24 -1.45 C48.2 -1.17, 242.03 0.46, 290 0.94" stroke="#364fc7" stroke-width="1" fill="none"></path></g><g transform="translate(10.240613006744752 246.01042377953377) rotate(0 144.87773531410517 -0.2535802944186685)"><path d="M261.27 9.29 C267.39 7.6, 275.67 7.41, 289.33 -0.82 M262.13 10.29 C268.95 7.73, 278.57 4.99, 289.71 1.2" stroke="#364fc7" stroke-width="1" fill="none"></path></g><g transform="translate(10.240613006744752 246.01042377953377) rotate(0 144.87773531410517 -0.2535802944186685)"><path d="M261.46 -11.23 C267.41 -7.47, 275.63 -2.22, 289.33 -0.82 M262.31 -10.23 C269.24 -6.99, 278.8 -3.94, 289.71 1.2" stroke="#364fc7" stroke-width="1" fill="none"></path></g></g><mask></mask><g stroke-linecap="round"><g transform="translate(292.78939658050695 285.8872876879848) rotate(0 -134.70330007143752 1.4523963548404168)"><path d="M-0.27 -0.99 C-45.35 -0.71, -226.12 1.69, -271.2 2.52 M1.8 1.1 C-42.88 1.49, -223.48 3.7, -269.08 3.9" stroke="#364fc7" stroke-width="1" fill="none"></path></g><g transform="translate(292.78939658050695 285.8872876879848) rotate(0 -134.70330007143752 1.4523963548404168)"><path d="M-242.64 -8.5 C-248.23 -5.24, -252.57 -2.25, -270.85 3.55 M-241.64 -7.29 C-252.19 -1.62, -262.64 1.09, -268.83 4.57" stroke="#364fc7" stroke-width="1" fill="none"></path></g><g transform="translate(292.78939658050695 285.8872876879848) rotate(0 -134.70330007143752 1.4523963548404168)"><path d="M-242.46 12.02 C-248.23 10.31, -252.61 8.33, -270.85 3.55 M-241.46 13.23 C-251.93 11.22, -262.44 6.24, -268.83 4.57" stroke="#364fc7" stroke-width="1" fill="none"></path></g></g><mask></mask><g transform="translate(61.539396580506946 180.62499999999977) rotate(0 82.99166870117188 22.5)"><text x="0" y="0" font-family="Virgil, Segoe UI Emoji" font-size="36px" fill="#364fc7" text-anchor="start" style="white-space: pre;" direction="ltr" dominant-baseline="text-before-edge">submit(...)</text></g><g transform="translate(100.28939658050695 304.3749999999998) rotate(0 58.54166793823242 22.5)"><text x="0" y="0" font-family="Virgil, Segoe UI Emoji" font-size="36px" fill="#364fc7" text-anchor="start" style="white-space: pre;" direction="ltr" dominant-baseline="text-before-edge">Future</text></g></svg>