<svg version="1.1" xmlns="http://www.w3.org/2000/svg" viewBox="0 0 1324.5986938476562 817.5741936826644" width="1324.5986938476562" height="817.5741936826644">
  <!-- svg-source:excalidraw -->
  
  <defs>
    <style class="style-fonts">
      @font-face {
        font-family: "Virgil";
        src: url("https://excalidraw.com/Virgil.woff2");
      }
      @font-face {
        font-family: "Cascadia";
        src: url("https://excalidraw.com/Cascadia.woff2");
      }
    </style>
  </defs>
  <g stroke-linecap="round" transform="translate(20.707194966224506 11.240860349331157) rotate(0 378.0581655480985 123.5)"><path d="M32 0 M32 0 C219.27 3.55, 405.21 2.91, 724.12 0 M32 0 C275.3 -0.16, 517.31 0.92, 724.12 0 M724.12 0 C748.02 -3.84, 759.28 13.81, 756.12 32 M724.12 0 C745.65 1.11, 753.96 12.42, 756.12 32 M756.12 32 C753.89 90.77, 752.03 151.61, 756.12 215 M756.12 32 C751.27 81.03, 754.26 132.02, 756.12 215 M756.12 215 C758.63 239.76, 747.39 249.53, 724.12 247 M756.12 215 C755.25 239.87, 745.96 249.03, 724.12 247 M724.12 247 C449.59 243.07, 174.85 243.29, 32 247 M724.12 247 C458.15 244.79, 191.49 245.98, 32 247 M32 247 C10.01 249.85, -2.59 232.38, 0 215 M32 247 C15.06 251.27, 2.51 237.78, 0 215 M0 215 C1.48 177.3, -4.31 130.47, 0 32 M0 215 C3.64 168.5, 2.33 120.02, 0 32 M0 32 C2.33 14.36, 7.35 -1.08, 32 0 M0 32 C0.22 11.49, 13.23 1.22, 32 0" stroke="#364fc7" stroke-width="4" fill="none"></path></g><g transform="translate(53.17118422403718 18.710659007049102) rotate(0 35.349998474121094 22.5)"><text x="0" y="0" font-family="Virgil, Segoe UI Emoji" font-size="36px" fill="#364fc7" text-anchor="start" style="white-space: pre;" direction="ltr" dominant-baseline="text-before-edge">item</text></g><g transform="translate(269.47669474283816 98.40752701599762) rotate(0 159.84165954589844 52.5)"><text x="0" y="0" font-family="Virgil, Segoe UI Emoji" font-size="28px" fill="#e67700" text-anchor="start" style="white-space: pre;" direction="ltr" dominant-baseline="text-before-edge">n_estimators: (10, 100)</text><text x="0" y="35" font-family="Virgil, Segoe UI Emoji" font-size="28px" fill="#e67700" text-anchor="start" style="white-space: pre;" direction="ltr" dominant-baseline="text-before-edge">criterion:"gini", "entropy"</text><text x="0" y="70" font-family="Virgil, Segoe UI Emoji" font-size="28px" fill="#e67700" text-anchor="start" style="white-space: pre;" direction="ltr" dominant-baseline="text-before-edge"></text></g><g transform="translate(54.83486779744209 181.07419368266443) rotate(0 49.125 22.5)"><text x="49.125" y="0" font-family="Virgil, Segoe UI Emoji" font-size="36px" fill="#0b7285" text-anchor="middle" style="white-space: pre;" direction="ltr" dominant-baseline="text-before-edge">config</text></g><g transform="translate(53.165527027992255 107.39242634485676) rotate(0 49.54166793823242 22.5)"><text x="49.54166793823242" y="0" font-family="Virgil, Segoe UI Emoji" font-size="36px" fill="#e67700" text-anchor="middle" style="white-space: pre;" direction="ltr" dominant-baseline="text-before-edge">space</text></g><g transform="translate(274.4698263804113 186.07419368266443) rotate(0 30.975000381469727 17.5)"><text x="30.975000381469727" y="0" font-family="Virgil, Segoe UI Emoji" font-size="28px" fill="#0b7285" text-anchor="middle" style="white-space: pre;" direction="ltr" dominant-baseline="text-before-edge">None</text></g><g transform="translate(267.81002807617153 24.074193682664188) rotate(0 158.78334045410156 17.5)"><text x="0" y="0" font-family="Virgil, Segoe UI Emoji" font-size="28px" fill="#364fc7" text-anchor="start" style="white-space: pre;" direction="ltr" dominant-baseline="text-before-edge">RandomForestClassifier</text></g><g transform="translate(272.81671524047806 666.7408603493311) rotate(0 51.83333206176758 22.5)"><text x="51.83333206176758" y="0" font-family="Virgil, Segoe UI Emoji" font-size="36px" fill="#495057" text-anchor="middle" style="white-space: pre;" direction="ltr" dominant-baseline="text-before-edge">build()</text></g><g transform="translate(10 741.8072618031059) rotate(0 163.71665954589844 17.40580210425361)"><text x="0" y="0" font-family="Virgil, Segoe UI Emoji" font-size="27.849283366805746px" fill="#364fc7" text-anchor="start" style="white-space: pre;" direction="ltr" dominant-baseline="text-before-edge">RandomForestClassifier(</text></g><g stroke-linecap="round" transform="translate(20.70719496622445 379.9075270159977) rotate(0 383.0581655480984 123.5)"><path d="M32 0 M32 0 C284.56 5.35, 533.06 6.72, 734.12 0 M32 0 C251.12 -3.73, 471.45 -3.21, 734.12 0 M734.12 0 C755.36 0.83, 762.27 7.88, 766.12 32 M734.12 0 C755.72 3.74, 761.64 6.49, 766.12 32 M766.12 32 C765.61 73.54, 765.07 108.38, 766.12 215 M766.12 32 C764.02 86.4, 764.44 141.35, 766.12 215 M766.12 215 C768.37 239.36, 754.49 248.19, 734.12 247 M766.12 215 C762.61 236.65, 754.01 248.81, 734.12 247 M734.12 247 C491.1 250.93, 250.3 251.79, 32 247 M734.12 247 C531.85 247.35, 327.79 246.89, 32 247 M32 247 C13.83 244.49, 2.01 236.02, 0 215 M32 247 C14.93 243.76, -0.33 240.09, 0 215 M0 215 C3.48 149.09, -1 87.82, 0 32 M0 215 C1.71 172.44, 4.85 134.44, 0 32 M0 32 C1.05 7.82, 14.14 -1.18, 32 0 M0 32 C4.06 13.73, 14.41 2.4, 32 0" stroke="#364fc7" stroke-width="4" fill="none"></path></g><g transform="translate(53.17118422403718 387.3773256737154) rotate(0 35.349998474121094 22.5)"><text x="0" y="0" font-family="Virgil, Segoe UI Emoji" font-size="36px" fill="#364fc7" text-anchor="start" style="white-space: pre;" direction="ltr" dominant-baseline="text-before-edge">item</text></g><g transform="translate(269.47669474283805 542.3712185101764) rotate(0 120.44999694824219 55.17092906688754)"><text x="0" y="0" font-family="Virgil, Segoe UI Emoji" font-size="29.42449550234002px" fill="#0b7285" text-anchor="start" style="white-space: pre;" direction="ltr" dominant-baseline="text-before-edge">n_estimators: 15</text><text x="0" y="36.78061937792502" font-family="Virgil, Segoe UI Emoji" font-size="29.42449550234002px" fill="#0b7285" text-anchor="start" style="white-space: pre;" direction="ltr" dominant-baseline="text-before-edge">criterion:"gini"</text><text x="0" y="73.56123875585004" font-family="Virgil, Segoe UI Emoji" font-size="29.42449550234002px" fill="#0b7285" text-anchor="start" style="white-space: pre;" direction="ltr" dominant-baseline="text-before-edge"></text></g><g transform="translate(51.501534464108715 548.0741936826643) rotate(0 49.125 22.5)"><text x="49.125" y="0" font-family="Virgil, Segoe UI Emoji" font-size="36px" fill="#0b7285" text-anchor="middle" style="white-space: pre;" direction="ltr" dominant-baseline="text-before-edge">config</text></g><g transform="translate(51.49886036132551 471.0590930115232) rotate(0 49.54166793823242 22.5)"><text x="49.54166793823242" y="0" font-family="Virgil, Segoe UI Emoji" font-size="36px" fill="#e67700" text-anchor="middle" style="white-space: pre;" direction="ltr" dominant-baseline="text-before-edge">space</text></g><g transform="translate(269.4698263804113 481.0590930115232) rotate(0 30.975000381469727 17.5)"><text x="30.975000381469727" y="0" font-family="Virgil, Segoe UI Emoji" font-size="28px" fill="#e67700" text-anchor="middle" style="white-space: pre;" direction="ltr" dominant-baseline="text-before-edge">None</text></g><g transform="translate(269.47669474283816 396.07419368266454) rotate(0 158.78334045410156 17.5)"><text x="0" y="0" font-family="Virgil, Segoe UI Emoji" font-size="28px" fill="#364fc7" text-anchor="start" style="white-space: pre;" direction="ltr" dominant-baseline="text-before-edge">RandomForestClassifier</text></g><g stroke-linecap="round"><g transform="translate(131.62461867647784 261.74086034933106) rotate(0 -1.5603564781565975 81.1128657796018)"><path d="M0.47 -0.14 C-0.07 26.94, -2.45 136.18, -3 163.48 M-0.74 -1.26 C-1.4 25.99, -3.19 134.55, -3.59 161.72" stroke="#e67700" stroke-width="4" fill="none"></path></g><g transform="translate(131.62461867647784 261.74086034933106) rotate(0 -1.5603564781565975 81.1128657796018)"><path d="M-13.63 134.52 C-8.88 143.83, -5.45 151.82, -2.05 161.55 M-13.28 133.77 C-11.07 138.59, -9.5 145.12, -3.77 162.14" stroke="#e67700" stroke-width="4" fill="none"></path></g><g transform="translate(131.62461867647784 261.74086034933106) rotate(0 -1.5603564781565975 81.1128657796018)"><path d="M6.88 134.85 C5.08 144.13, 1.96 152.02, -2.05 161.55 M7.23 134.1 C5.15 138.91, 2.43 145.37, -3.77 162.14" stroke="#e67700" stroke-width="4" fill="none"></path></g></g><mask></mask><g stroke-linecap="round"><g transform="translate(131.34323272166344 633.4075270159979) rotate(0 0.875327321893824 44.66954478281224)"><path d="M-1.14 1.19 C-0.97 15.77, 0.3 74.05, 0.62 88.58 M0.46 0.76 C1.04 15.48, 3.01 71.77, 2.89 86.58" stroke="#e67700" stroke-width="4" fill="none"></path></g><g transform="translate(131.34323272166344 633.4075270159979) rotate(0 0.875327321893824 44.66954478281224)"><path d="M-5.85 57.14 C-4.31 65.05, -1.85 73.62, 1.72 84.67 M-8.09 58.07 C-4.51 67.38, 0.07 77.13, 2.17 87.5" stroke="#e67700" stroke-width="4" fill="none"></path></g><g transform="translate(131.34323272166344 633.4075270159979) rotate(0 0.875327321893824 44.66954478281224)"><path d="M14.67 56.81 C10.73 64.61, 7.7 73.27, 1.72 84.67 M12.42 57.74 C9.11 67.14, 6.77 77, 2.17 87.5" stroke="#e67700" stroke-width="4" fill="none"></path></g></g><mask></mask><g transform="translate(269.46807352701785 289.2408603493312) rotate(0 139.61666870117188 22.5)"><text x="139.61666870117188" y="0" font-family="Virgil, Segoe UI Emoji" font-size="36px" fill="#495057" text-anchor="middle" style="white-space: pre;" direction="ltr" dominant-baseline="text-before-edge">configure(config)</text></g><g stroke-linecap="round"><g transform="translate(1141.42579014305 256.7408603493312) rotate(0 -0.27500698732382034 52.37734477149934)"><path d="M-0.25 0.66 C-0.7 17.89, -1.48 86.19, -1.82 103.28 M1.81 -0.04 C1.2 17.4, -1.58 87.38, -2.36 104.8" stroke="#e67700" stroke-width="4" fill="none"></path></g><g transform="translate(1141.42579014305 256.7408603493312) rotate(0 -0.27500698732382034 52.37734477149934)"><path d="M-10.34 77.5 C-8.17 87.34, -4.91 97.53, -3.02 105.06 M-11.62 75.8 C-9.88 82.82, -6.89 88.83, -2.01 104.52" stroke="#e67700" stroke-width="4" fill="none"></path></g><g transform="translate(1141.42579014305 256.7408603493312) rotate(0 -0.27500698732382034 52.37734477149934)"><path d="M10.17 78.36 C4.71 87.84, 0.34 97.7, -3.02 105.06 M8.89 76.66 C5.78 83.51, 3.94 89.32, -2.01 104.52" stroke="#e67700" stroke-width="4" fill="none"></path></g></g><mask></mask><g transform="translate(1021.2166646321618 143.33942718646335) rotate(0 135.25833129882812 44.42218593997163)"><text x="0" y="0" font-family="Virgil, Segoe UI Emoji" font-size="23.691832501318196px" fill="#e67700" text-anchor="start" style="white-space: pre;" direction="ltr" dominant-baseline="text-before-edge">n_estimators: (10, 100)</text><text x="0" y="29.614790626647746" font-family="Virgil, Segoe UI Emoji" font-size="23.691832501318196px" fill="#e67700" text-anchor="start" style="white-space: pre;" direction="ltr" dominant-baseline="text-before-edge">criterion:"gini", "entropy"</text><text x="0" y="59.22958125329549" font-family="Virgil, Segoe UI Emoji" font-size="23.691832501318196px" fill="#e67700" text-anchor="start" style="white-space: pre;" direction="ltr" dominant-baseline="text-before-edge"></text></g><g transform="translate(1099.2003873189287 72.96458829892264) rotate(0 49.54166793823242 22.5)"><text x="49.54166793823242" y="0" font-family="Virgil, Segoe UI Emoji" font-size="36px" fill="#e67700" text-anchor="middle" style="white-space: pre;" direction="ltr" dominant-baseline="text-before-edge">space</text></g><g stroke-linecap="round" transform="translate(994.5986938476565 58.40752701599773) rotate(0 154.16666666666663 93.33333333333337)"><path d="M32 0 M32 0 C87.65 -0.93, 147.43 -1.94, 276.33 0 M32 0 C127.1 0.02, 221.33 0.27, 276.33 0 M276.33 0 C297.66 1.45, 309.79 8.74, 308.33 32 M276.33 0 C299.78 0.09, 306.27 11.6, 308.33 32 M308.33 32 C307.15 56.01, 308.87 85.23, 308.33 154.67 M308.33 32 C306.73 75.55, 306.56 119, 308.33 154.67 M308.33 154.67 C307.64 175.41, 296.48 187.95, 276.33 186.67 M308.33 154.67 C309.57 176.91, 298.54 187.62, 276.33 186.67 M276.33 186.67 C211.64 185.02, 144.48 187.06, 32 186.67 M276.33 186.67 C210.96 185.24, 144.16 185.19, 32 186.67 M32 186.67 C11.4 185.8, 0.4 177.72, 0 154.67 M32 186.67 C11.54 186.44, -2.09 174.55, 0 154.67 M0 154.67 C2.43 130.6, 1.06 107.37, 0 32 M0 154.67 C-1.39 115.96, -1.29 79.51, 0 32 M0 32 C-1.51 11.91, 11.86 -0.88, 32 0 M0 32 C-0.74 10.97, 11.92 -0.64, 32 0" stroke="#e67700" stroke-width="4" fill="none"></path></g><g transform="translate(862.93202718099 283.40752701599763) rotate(0 119.7249984741211 22.5)"><text x="0" y="0" font-family="Virgil, Segoe UI Emoji" font-size="36px" fill="#495057" text-anchor="start" style="white-space: pre;" direction="ltr" dominant-baseline="text-before-edge">sample(space)</text></g><g stroke-linecap="round"><g transform="translate(236.26536051432322 11.740860349331044) rotate(0 0.20824152239597993 120.95030968815706)"><path d="M0.59 -0.46 C0.93 39.92, 0.95 201.98, 0.97 242.53 M-0.55 -1.74 C-0.2 38.74, 0.39 202.71, 0.53 243.64" stroke="#364fc7" stroke-width="4" fill="none"></path></g></g><mask></mask><g stroke-linecap="round"><g transform="translate(237.7237856585939 382.4572173278406) rotate(0 -0.09000605531036854 122.70207609223823)"><path d="M-1.07 1.07 C-0.76 41.67, 0.83 202.74, 0.89 243.3 M0.57 0.59 C0.89 41.41, 0.2 204.47, 0.41 244.82" stroke="#364fc7" stroke-width="4" fill="none"></path></g></g><mask></mask><g transform="translate(341.6048838297529 737.5741936826644) rotate(0 212.5833282470703 35)"><text x="0" y="0" font-family="Virgil, Segoe UI Emoji" font-size="28px" fill="#0b7285" text-anchor="start" style="white-space: pre;" direction="ltr" dominant-baseline="text-before-edge">n_estimators: 15, criterion:"gini"</text><text x="0" y="35" font-family="Virgil, Segoe UI Emoji" font-size="28px" fill="#0b7285" text-anchor="start" style="white-space: pre;" direction="ltr" dominant-baseline="text-before-edge"></text></g><g transform="translate(767.9320271809897 731.7408603493309) rotate(0 6.083333492279053 22.5)"><text x="0" y="0" font-family="Virgil, Segoe UI Emoji" font-size="36px" fill="#364fc7" text-anchor="start" style="white-space: pre;" direction="ltr" dominant-baseline="text-before-edge">)</text></g><g transform="translate(1025.7715504964194 454.903264615777) rotate(0 120.44999694824213 55.17092906688754)"><text x="0" y="0" font-family="Virgil, Segoe UI Emoji" font-size="29.42449550234002px" fill="#0b7285" text-anchor="start" style="white-space: pre;" direction="ltr" dominant-baseline="text-before-edge">n_estimators: 15</text><text x="0" y="36.78061937792502" font-family="Virgil, Segoe UI Emoji" font-size="29.42449550234002px" fill="#0b7285" text-anchor="start" style="white-space: pre;" direction="ltr" dominant-baseline="text-before-edge">criterion:"gini"</text><text x="0" y="73.56123875585004" font-family="Virgil, Segoe UI Emoji" font-size="29.42449550234002px" fill="#0b7285" text-anchor="start" style="white-space: pre;" direction="ltr" dominant-baseline="text-before-edge"></text></g><g stroke-linecap="round" transform="translate(957.9320271809897 383.4075270159979) rotate(0 178.33333333333326 101.66666666666663)"><path d="M32 0 M32 0 C142.04 -0.79, 251.81 -1.66, 324.67 0 M32 0 C124.5 -0.84, 218.23 -0.99, 324.67 0 M324.67 0 C347.03 -1.31, 358.5 9.16, 356.67 32 M324.67 0 C344.08 1.11, 358.82 10.39, 356.67 32 M356.67 32 C355.87 63.89, 356.14 97.01, 356.67 171.33 M356.67 32 C356.37 61.01, 355.21 91, 356.67 171.33 M356.67 171.33 C354.81 192.11, 345.62 204.02, 324.67 203.33 M356.67 171.33 C355.59 192.71, 347.54 204.45, 324.67 203.33 M324.67 203.33 C222.98 203.8, 121.35 204.08, 32 203.33 M324.67 203.33 C248.21 204.82, 170.58 204.09, 32 203.33 M32 203.33 C11.49 204.94, 0.45 191.17, 0 171.33 M32 203.33 C12.85 202.36, 0.59 191.39, 0 171.33 M0 171.33 C0.24 141.34, -0.48 113.66, 0 32 M0 171.33 C1.13 119.48, 1.37 68.07, 0 32 M0 32 C-0.31 8.83, 8.73 0.43, 32 0 M0 32 C0.01 9.46, 8.71 1.15, 32 0" stroke="#0b7285" stroke-width="4" fill="none"></path></g><g transform="translate(1094.5986938476565 400.07419368266466) rotate(0 51.68333435058594 22.5)"><text x="0" y="0" font-family="Virgil, Segoe UI Emoji" font-size="36px" fill="#0b7285" text-anchor="start" style="white-space: pre;" direction="ltr" dominant-baseline="text-before-edge">Config</text></g></svg>