<svg version="1.1" xmlns="http://www.w3.org/2000/svg" viewBox="0 0 863.5 1101" width="863.5" height="1101">
  <defs>
    <style class="style-fonts">
      @font-face {
        font-family: "Virgil";
        src: url("https://excalidraw.com/Virgil.woff2");
      }
      @font-face {
        font-family: "Cascadia";
        src: url("https://excalidraw.com/Cascadia.woff2");
      }
    </style>
  </defs>
  <g stroke-linecap="round" transform="translate(348 10) rotate(0 116.5 76)"><path d="M32 0 M32 0 C98.14 3.33, 163.08 0.61, 201 0 M32 0 C76.91 -0.48, 122.48 -0.93, 201 0 M201 0 C221.49 1.1, 234.79 9.14, 233 32 M201 0 C222.77 1.8, 234.17 9.71, 233 32 M233 32 C233.9 57.18, 234.7 79.1, 233 120 M233 32 C233.88 64.12, 233.5 96.63, 233 120 M233 120 C233.23 141.09, 222.3 153.77, 201 152 M233 120 C232.81 140.09, 222.94 152.63, 201 152 M201 152 C144 149.92, 88.63 151.34, 32 152 M201 152 C137.81 150.39, 75.22 151.52, 32 152 M32 152 C11.57 152.17, -1.37 141.36, 0 120 M32 152 C12.7 150.88, 1.98 141.31, 0 120 M0 120 C0.39 86.88, -0.82 49.5, 0 32 M0 120 C1.07 88.86, -0.01 58.95, 0 32 M0 32 C-1.03 11.56, 12.01 1.88, 32 0 M0 32 C-2.01 11.74, 12.75 1.47, 32 0" stroke="#364fc7" stroke-width="4" fill="none"></path></g><g transform="translate(386 67) rotate(0 83.58035278320312 17.5)"><text x="0" y="0" font-family="Virgil, Segoe UI Emoji" font-size="28px" fill="#364fc7" text-anchor="start" style="white-space: pre;" direction="ltr" dominant-baseline="text-before-edge">Nan-Imputer</text></g><g stroke-linecap="round" transform="translate(135 404) rotate(0 116.5 76)"><path d="M32 0 M32 0 C68.06 2.17, 107.75 0.64, 201 0 M32 0 C70.6 -0.63, 110.17 -0.57, 201 0 M201 0 C223.54 -1.93, 233.92 12.07, 233 32 M201 0 C222 -1.67, 234.12 8.85, 233 32 M233 32 C231.92 64.82, 232.29 97.34, 233 120 M233 32 C234.29 65.22, 234.47 96.8, 233 120 M233 120 C233.45 142.18, 223.04 153.69, 201 152 M233 120 C234.71 140.22, 224.46 151.41, 201 152 M201 152 C144.58 152.33, 86.59 151.01, 32 152 M201 152 C143.2 152.1, 86.86 152.41, 32 152 M32 152 C12.14 152.06, -0.36 142.88, 0 120 M32 152 C11.52 150.9, 0.5 140.09, 0 120 M0 120 C-0.72 98.08, -1.12 73.41, 0 32 M0 120 C1.24 86.29, 0.97 51.39, 0 32 M0 32 C-0.64 9.85, 11.7 0.8, 32 0 M0 32 C1.55 10.04, 10.07 1.48, 32 0" stroke="#364fc7" stroke-width="4" fill="none"></path></g><g transform="translate(184 445) rotate(0 63.58826446533203 35)"><text x="63.58826446533203" y="0" font-family="Virgil, Segoe UI Emoji" font-size="28px" fill="#364fc7" text-anchor="middle" style="white-space: pre;" direction="ltr" dominant-baseline="text-before-edge">Standard</text><text x="63.58826446533203" y="35" font-family="Virgil, Segoe UI Emoji" font-size="28px" fill="#364fc7" text-anchor="middle" style="white-space: pre;" direction="ltr" dominant-baseline="text-before-edge">Scaler</text></g><g stroke-linecap="round" transform="translate(599 390) rotate(0 116.5 76)"><path d="M32 0 M32 0 C83.99 -2.26, 134.93 -2.39, 201 0 M32 0 C75.94 1.45, 119.88 0.61, 201 0 M201 0 C224.2 -1.79, 234.48 11.58, 233 32 M201 0 C224.42 0.42, 234.41 9.93, 233 32 M233 32 C234.8 54.24, 232.93 78.86, 233 120 M233 32 C233.18 51.13, 232.54 69.71, 233 120 M233 120 C231.97 140.02, 222.62 151.02, 201 152 M233 120 C235.22 140.02, 221.6 150.85, 201 152 M201 152 C140.74 154.37, 78.6 154.02, 32 152 M201 152 C153.73 152.07, 106.86 151.7, 32 152 M32 152 C9.76 152.36, -1.85 141.96, 0 120 M32 152 C12.67 149.97, -1.69 142.45, 0 120 M0 120 C1.15 90.96, -1.85 59.91, 0 32 M0 120 C-0.08 102.13, 1.32 84.06, 0 32 M0 32 C-0.91 12.13, 10.86 -0.42, 32 0 M0 32 C1.57 10.99, 8.94 1.47, 32 0" stroke="#364fc7" stroke-width="4" fill="none"></path></g><g transform="translate(662 433) rotate(0 53.494224548339844 35)"><text x="0" y="0" font-family="Virgil, Segoe UI Emoji" font-size="28px" fill="#364fc7" text-anchor="start" style="white-space: pre;" direction="ltr" dominant-baseline="text-before-edge">One-Hot</text><text x="0" y="35" font-family="Virgil, Segoe UI Emoji" font-size="28px" fill="#364fc7" text-anchor="start" style="white-space: pre;" direction="ltr" dominant-baseline="text-before-edge">Encoder</text></g><g stroke-linecap="round" transform="translate(238.5 698) rotate(0 229.5 80)"><path d="M287.5 20.25 M287.5 20.25 C329.58 38.32, 373.06 52.87, 401.5 60.75 M401.5 60.75 C459.34 80.37, 459.67 80.55, 401.5 101.25 M401.5 101.25 C368.03 112.91, 332.53 123.79, 287.5 139.75 M287.5 139.75 C230.37 161.8, 229.1 160.45, 172.5 139.75 M172.5 139.75 C129.04 127.62, 85.17 109.63, 57.5 101.25 M57.5 101.25 C-0.11 82.4, 0.23 79.16, 57.5 60.75 M57.5 60.75 C93.65 46.58, 131.67 31.58, 172.5 20.25 M172.5 20.25 C230.75 -1.67, 231.43 -1.7, 287.5 20.25" stroke="#087f5b" stroke-width="4.5" fill="none" stroke-dasharray="8 12"></path></g><g transform="translate(407.8397445678711 760.5) rotate(0 60.410255432128906 17.5)"><text x="60.410255432128906" y="0" font-family="Virgil, Segoe UI Emoji" font-size="28px" fill="#087f5b" text-anchor="middle" style="white-space: pre;" direction="ltr" dominant-baseline="text-before-edge">Algorithm</text></g><g stroke-linecap="round" transform="translate(131 892) rotate(0 120 74.5)"><path d="M32 0 M32 0 C80.21 1, 134.24 5.41, 208 0 M32 0 C92.48 -2.51, 150.36 -4.59, 208 0 M208 0 C229.24 -2.67, 240.52 9.45, 240 32 M208 0 C229.39 -2.09, 239.32 6.15, 240 32 M240 32 C240.03 50.53, 240.21 68.39, 240 117 M240 32 C239.65 60, 240.33 90.17, 240 117 M240 117 C240.48 139.28, 226.62 148.07, 208 149 M240 117 C241.28 136.35, 226.25 152.83, 208 149 M208 149 C145.1 154.58, 78.78 152.59, 32 149 M208 149 C166.66 150.84, 125.35 152.03, 32 149 M32 149 C9.91 151.96, -1.78 137.45, 0 117 M32 149 C9.09 147.54, 0.19 141.69, 0 117 M0 117 C-1.31 90.49, 2.59 67.85, 0 32 M0 117 C-1.43 90.02, 0.21 59.16, 0 32 M0 32 C-1.37 8.14, 9.01 3.61, 32 0 M0 32 C0.97 6.29, 8.41 0.96, 32 0" stroke="#364fc7" stroke-width="4" fill="none"></path></g><g transform="translate(152 944) rotate(0 101.93443298339844 17.5)"><text x="0" y="0" font-family="Virgil, Segoe UI Emoji" font-size="28px" fill="#364fc7" text-anchor="start" style="white-space: pre;" direction="ltr" dominant-baseline="text-before-edge">Random Forest</text></g><g stroke-linecap="round" transform="translate(554 882) rotate(0 123.5 80.56652360515022)"><path d="M32 0 M32 0 C97.07 -0.07, 166.18 0.65, 215 0 M32 0 C69.12 -1.08, 105.98 -0.45, 215 0 M215 0 C237.58 0.23, 245.16 10.85, 247 32 M215 0 C238.05 -1.67, 245.7 9.6, 247 32 M247 32 C246.33 51.44, 248.86 71.07, 247 129.13 M247 32 C247.41 56.5, 246.69 80.6, 247 129.13 M247 129.13 C246.37 151.49, 236.6 161.55, 215 161.13 M247 129.13 C246.63 150.32, 234.09 161.68, 215 161.13 M215 161.13 C178.18 162.8, 137.75 160.98, 32 161.13 M215 161.13 C159.56 161.63, 104.82 161.28, 32 161.13 M32 161.13 C12.62 161.95, 1.28 152.47, 0 129.13 M32 161.13 C8.83 159.32, 0.75 149.85, 0 129.13 M0 129.13 C0.68 89.65, 1.15 52.59, 0 32 M0 129.13 C0.12 92.92, 1.78 56.64, 0 32 M0 32 C-0.6 9.1, 8.73 0.19, 32 0 M0 32 C1.96 10.9, 11.3 1.23, 32 0" stroke="#364fc7" stroke-width="4" fill="none"></path></g><g transform="translate(662.1287553648069 941.3648068669528) rotate(0 28.064832728308147 18.55150214592277)"><text x="0" y="0" font-family="Virgil, Segoe UI Emoji" font-size="29.6824034334764px" fill="#364fc7" text-anchor="start" style="white-space: pre;" direction="ltr" dominant-baseline="text-before-edge">SVM</text></g><g stroke-linecap="round" transform="translate(331.5 230.75) rotate(0 144 63)"><path d="M191.41 2.56 C207.95 3.92, 225.2 9.41, 238.29 14.65 C251.38 19.88, 261.75 27.2, 269.94 33.97 C278.14 40.73, 285.25 47.75, 287.47 55.24 C289.68 62.73, 287.4 71.65, 283.24 78.9 C279.08 86.14, 272.44 92.79, 262.48 98.73 C252.52 104.66, 238.15 110.36, 223.48 114.51 C208.82 118.66, 191.19 121.78, 174.49 123.61 C157.8 125.45, 140.44 126.58, 123.3 125.51 C106.15 124.43, 86.76 120.87, 71.61 117.17 C56.47 113.46, 43.3 109.24, 32.42 103.27 C21.54 97.29, 11.54 88.6, 6.31 81.3 C1.09 74.01, 0.04 66.77, 1.06 59.51 C2.08 52.25, 5.21 44.78, 12.41 37.72 C19.62 30.67, 31.64 22.58, 44.28 17.17 C56.91 11.76, 72.55 8.21, 88.23 5.27 C103.91 2.33, 119.19 -0.35, 138.34 -0.46 C157.48 -0.57, 190.59 2.83, 203.09 4.61 C215.59 6.39, 214.17 9.21, 213.34 10.2 M146.03 1.41 C162.75 0.55, 182.2 3.4, 198.56 5.79 C214.92 8.18, 231.42 10.62, 244.19 15.76 C256.95 20.9, 267.8 29.58, 275.16 36.66 C282.52 43.73, 287.02 50.85, 288.34 58.2 C289.67 65.55, 288.26 73.6, 283.11 80.77 C277.95 87.94, 268.42 94.98, 257.4 101.22 C246.37 107.46, 231.9 114.42, 216.96 118.23 C202.01 122.04, 184.64 122.97, 167.71 124.08 C150.78 125.2, 132.27 126.05, 115.37 124.9 C98.48 123.75, 81.06 121.55, 66.35 117.18 C51.65 112.82, 37.33 105.27, 27.14 98.72 C16.95 92.17, 9.79 84.8, 5.21 77.88 C0.64 70.97, -2.39 64.61, -0.3 57.22 C1.79 49.82, 9.73 40.67, 17.76 33.52 C25.78 26.36, 35 19.41, 47.85 14.3 C60.7 9.18, 78.16 5.26, 94.85 2.84 C111.54 0.41, 139.36 0.26, 147.97 -0.25 C156.59 -0.75, 146.68 -1.22, 146.53 -0.2" stroke="#862e9c" stroke-width="4" fill="none"></path></g><g transform="translate(385.55824582359037 258.7022727852475) rotate(0 90.11837768554688 35)"><text x="90.11837768554688" y="0" font-family="Virgil, Segoe UI Emoji" font-size="28px" fill="#862e9c" text-anchor="middle" style="white-space: pre;" direction="ltr" dominant-baseline="text-before-edge">Data-</text><text x="90.11837768554688" y="35" font-family="Virgil, Segoe UI Emoji" font-size="28px" fill="#862e9c" text-anchor="middle" style="white-space: pre;" direction="ltr" dominant-baseline="text-before-edge">Preprocessing</text></g><g stroke-linecap="round"><g transform="translate(570.4035439220397 342.1375692165833) rotate(0 18.305982645357176 14.490465373126654)"><path d="M-0.31 0.22 C5.79 4.88, 30.67 23.36, 36.92 28.05 M1.73 -0.71 C7.64 4.17, 30.19 25.19, 35.99 29.69" stroke="#862e9c" stroke-width="2" fill="none"></path></g><g transform="translate(570.4035439220397 342.1375692165833) rotate(0 18.305982645357176 14.490465373126654)"><path d="M14.75 21.55 C21.79 24.73, 29.36 25.21, 36.36 30.35 M15.09 21.08 C21.25 24.36, 28.18 25.57, 35.58 29.01" stroke="#862e9c" stroke-width="2" fill="none"></path></g><g transform="translate(570.4035439220397 342.1375692165833) rotate(0 18.305982645357176 14.490465373126654)"><path d="M25.07 9.58 C28.73 16.66, 32.92 21.07, 36.36 30.35 M25.41 9.1 C28.58 15.98, 32.46 20.73, 35.58 29.01" stroke="#862e9c" stroke-width="2" fill="none"></path></g></g><mask></mask><g stroke-linecap="round"><g transform="translate(372.47399173119175 338.7850573318791) rotate(0 -18.40837938865218 20.54944422952994)"><path d="M-0.66 1.13 C-6.71 7.73, -31.34 32.78, -37.49 39.35 M1.2 0.67 C-4.85 7.42, -31.5 33.54, -38.02 40.43" stroke="#862e9c" stroke-width="2" fill="none"></path></g><g transform="translate(372.47399173119175 338.7850573318791) rotate(0 -18.40837938865218 20.54944422952994)"><path d="M-24.59 16.52 C-30.33 21.56, -30.74 24.33, -39.16 41.59 M-26.64 14.63 C-30.07 22.01, -32.01 28.35, -37.97 39.57" stroke="#862e9c" stroke-width="2" fill="none"></path></g><g transform="translate(372.47399173119175 338.7850573318791) rotate(0 -18.40837938865218 20.54944422952994)"><path d="M-11.06 29.85 C-19.55 32.08, -22.73 32.12, -39.16 41.59 M-13.12 27.96 C-20.03 31.72, -25.54 34.54, -37.97 39.57" stroke="#862e9c" stroke-width="2" fill="none"></path></g></g><mask></mask><g stroke-linecap="round"><g transform="translate(467.3387797780001 163) rotate(0 -0.6100862856554841 33.27962040577454)"><path d="M0.25 -0.99 C-0.01 9.87, -1.52 55.07, -1.76 66.31 M-1.07 1.11 C-0.93 12.62, 0.7 56.48, 0.53 67.55" stroke="#1864ab" stroke-width="2" fill="none"></path></g><g transform="translate(467.3387797780001 163) rotate(0 -0.6100862856554841 33.27962040577454)"><path d="M-11.78 38.19 C-7.79 47.05, -4.59 53.98, -1.12 67.32 M-9.17 40.38 C-6.67 46.22, -4.69 52.18, 0.14 68.04" stroke="#1864ab" stroke-width="2" fill="none"></path></g><g transform="translate(467.3387797780001 163) rotate(0 -0.6100862856554841 33.27962040577454)"><path d="M8.74 37.89 C6.93 46.88, 4.32 53.89, -1.12 67.32 M11.35 40.08 C9.1 46.14, 6.33 52.17, 0.14 68.04" stroke="#1864ab" stroke-width="2" fill="none"></path></g></g><mask></mask><g stroke-linecap="round"><g transform="translate(588.6430406555064 831.8972114476634) rotate(0 12.677665050828182 16.79734796487986)"><path d="M0.71 0.12 C5.02 5.53, 20.72 28.04, 24.65 33.47" stroke="#1864ab" stroke-width="2.5" fill="none" stroke-dasharray="8 10"></path></g><g transform="translate(588.6430406555064 831.8972114476634) rotate(0 12.677665050828182 16.79734796487986)"><path d="M7.96 21.34 C12.67 22.93, 14.79 25.55, 23.22 32.44" stroke="#1864ab" stroke-width="2.5" fill="none"></path></g><g transform="translate(588.6430406555064 831.8972114476634) rotate(0 12.677665050828182 16.79734796487986)"><path d="M19.41 13.21 C21.89 16.5, 21.71 20.76, 23.22 32.44" stroke="#1864ab" stroke-width="2.5" fill="none"></path></g></g><mask></mask><g stroke-linecap="round"><g transform="translate(364.5 566) rotate(0 46.015319402888395 28.225708926832283)"><path d="M-0.93 -0.77 C14.49 8.52, 77.17 46.67, 92.97 56.14 M0.78 1.43 C16.01 10.83, 76.54 47.99, 92 57.23" stroke="#862e9c" stroke-width="2" fill="none"></path></g></g><mask></mask><g stroke-linecap="round"><g transform="translate(489.5 619) rotate(0 50.30581163028262 -31.339095700317955)"><path d="M0.42 0.32 C17.09 -9.93, 82.62 -50.87, 99.16 -61.27 M-0.82 -0.55 C16.3 -11.17, 84.85 -52.98, 101.43 -63" stroke="#862e9c" stroke-width="2" fill="none"></path></g></g><mask></mask><g stroke-opacity="0.3" fill-opacity="0.3" stroke-linecap="round" transform="translate(96.5 676) rotate(0 378.5 207.5)"><path d="M32 0 M32 0 C254.95 -0.01, 477.95 1.36, 725 0 M32 0 C296.12 3.45, 561.86 3.61, 725 0 M725 0 C745.72 3.25, 758.72 9.99, 757 32 M725 0 C741.84 -3.81, 754.76 13.73, 757 32 M757 32 C756.41 149.34, 755.35 264.49, 757 383 M757 32 C752.46 140.24, 751.84 246.43, 757 383 M757 383 C755.7 406.51, 744.76 414.79, 725 415 M757 383 C754.72 408.84, 744.98 413.58, 725 415 M725 415 C485.42 410.56, 247.28 409.12, 32 415 M725 415 C462.74 408.83, 201.84 409.66, 32 415 M32 415 C6.89 418.92, 3.73 402.31, 0 383 M32 415 C11.05 417.17, -1.02 400.73, 0 383 M0 383 C1.26 291.41, 2.08 200.46, 0 32 M0 383 C-1.12 260.41, -0.9 138.17, 0 32 M0 32 C2.68 12.28, 13.97 -2.8, 32 0 M0 32 C-4.2 7.8, 6.58 -3.65, 32 0" stroke="#087f5b" stroke-width="4" fill="none"></path></g><g stroke-linecap="round"><g transform="translate(476.11008628565514 628.7203795942254) rotate(0 -2.2334676573851766 26.656790957352143)"><path d="M-0.22 0.24 C-0.99 9.12, -3.09 44.03, -3.87 52.61 M-1.8 -0.69 C-2.68 8.44, -3.61 45.15, -4.24 54" stroke="#1864ab" stroke-width="2" fill="none"></path></g><g transform="translate(476.11008628565514 628.7203795942254) rotate(0 -2.2334676573851766 26.656790957352143)"><path d="M-11.78 30.49 C-9.93 37.88, -8.57 48.31, -3.09 53.86 M-12.34 29.11 C-9.81 35.39, -7.97 44.46, -5.12 53.68" stroke="#1864ab" stroke-width="2" fill="none"></path></g><g transform="translate(476.11008628565514 628.7203795942254) rotate(0 -2.2334676573851766 26.656790957352143)"><path d="M6.36 31.32 C1.71 38.38, -3.43 48.51, -3.09 53.86 M5.81 29.94 C2.91 36, -0.68 44.82, -5.12 53.68" stroke="#1864ab" stroke-width="2" fill="none"></path></g></g><mask></mask><g stroke-linecap="round"><g transform="translate(354.7334676573853 836.3432090426479) rotate(0 -13.073446443198009 21.891923409005585)"><path d="M0.99 -0.63 C-3.48 6.77, -22.6 37.12, -27.14 44.41" stroke="#1864ab" stroke-width="2.5" fill="none" stroke-dasharray="8 10"></path></g><g transform="translate(354.7334676573853 836.3432090426479) rotate(0 -13.073446443198009 21.891923409005585)"><path d="M-22.86 17.54 C-22.39 26.02, -25.98 32.7, -27.77 45.58" stroke="#1864ab" stroke-width="2.5" fill="none"></path></g><g transform="translate(354.7334676573853 836.3432090426479) rotate(0 -13.073446443198009 21.891923409005585)"><path d="M-8.08 26.79 C-11.7 32.84, -19.37 36.96, -27.77 45.58" stroke="#1864ab" stroke-width="2.5" fill="none"></path></g></g><mask></mask><g stroke-linecap="round" transform="translate(80.5 200) rotate(0 68 38.5)"><path d="M19.25 0 M19.25 0 C44.97 -0.07, 68.69 -0.47, 116.75 0 M19.25 0 C44.8 0.13, 70.66 -0.4, 116.75 0 M116.75 0 C128.57 1.88, 136.06 4.53, 136 19.25 M116.75 0 C131.76 -1.42, 137.07 4.63, 136 19.25 M136 19.25 C137.49 31.61, 135.82 47.19, 136 57.75 M136 19.25 C135.15 27.17, 135.43 36.42, 136 57.75 M136 57.75 C135.61 72.35, 131.43 78.31, 116.75 77 M136 57.75 C135.2 71.96, 129.11 74.98, 116.75 77 M116.75 77 C83.42 76.31, 49.08 75.38, 19.25 77 M116.75 77 C92.24 77.07, 69.6 76.66, 19.25 77 M19.25 77 C4.64 77.33, -1.34 69.99, 0 57.75 M19.25 77 C6.72 78.23, -1.49 68.71, 0 57.75 M0 57.75 C0.23 43.32, 0.31 30.32, 0 19.25 M0 57.75 C0.28 49.83, -1.03 41.12, 0 19.25 M0 19.25 C-0.18 5.82, 5.66 -0.92, 19.25 0 M0 19.25 C1.76 4.79, 8.05 -0.81, 19.25 0" stroke="#364fc7" stroke-width="4" fill="none"></path></g><g transform="translate(99.26004791259766 226) rotate(0 49.239952087402344 12.5)"><text x="49.239952087402344" y="0" font-family="Virgil, Segoe UI Emoji" font-size="20px" fill="#364fc7" text-anchor="middle" style="white-space: pre;" direction="ltr" dominant-baseline="text-before-edge">Component</text></g><g transform="translate(110.5 26) rotate(0 45.220191955566406 17.5)"><text x="0" y="0" font-family="Virgil, Segoe UI Emoji" font-size="28px" fill="#1864ab" text-anchor="start" style="white-space: pre;" direction="ltr" dominant-baseline="text-before-edge">Legend</text></g><g stroke-linecap="round"><g transform="translate(89.5 75) rotate(0 65.8642719823867 0.6363854692186095)"><path d="M-0.85 0.85 C21.34 0.68, 110.33 0.21, 132.58 -0.11 M0.91 0.25 C22.95 0.2, 109.61 1.46, 131.41 1.37" stroke="#1864ab" stroke-width="2" fill="none"></path></g></g><mask></mask><g stroke-linecap="round" transform="translate(10 102.5) rotate(0 63 41.5)"><path d="M57 -0.53 C66.66 -1.83, 78.85 0.27, 88.43 3.36 C98.01 6.44, 108.25 12.42, 114.48 18 C120.71 23.57, 124.82 30.09, 125.82 36.83 C126.82 43.57, 124.8 51.87, 120.46 58.44 C116.12 65.01, 108.46 72.1, 99.78 76.26 C91.1 80.42, 78.71 82.76, 68.36 83.4 C58.02 84.04, 47.06 83.07, 37.71 80.11 C28.37 77.14, 18.51 71.26, 12.3 65.58 C6.09 59.9, 1.7 52.8, 0.44 46.02 C-0.82 39.23, 0.4 31.25, 4.75 24.87 C9.09 18.49, 16.15 11.88, 26.49 7.73 C36.84 3.59, 58.4 0.85, 66.84 -0.01 C75.29 -0.87, 77.1 1.99, 77.17 2.56 M34.87 5.64 C43.53 2.01, 56.3 -0.29, 66.73 -0.21 C77.17 -0.13, 88.62 2.46, 97.48 6.1 C106.33 9.74, 115.25 15.23, 119.84 21.63 C124.44 28.03, 125.56 37.55, 125.05 44.49 C124.54 51.44, 122.18 57.64, 116.79 63.31 C111.39 68.98, 102.32 75.21, 92.68 78.53 C83.04 81.85, 69.79 83.82, 58.96 83.24 C48.13 82.66, 36.54 78.97, 27.7 75.04 C18.86 71.12, 10.33 65.46, 5.93 59.71 C1.53 53.96, 0.8 47.07, 1.31 40.54 C1.83 34.02, 3.56 26.35, 9.03 20.57 C14.5 14.79, 29.9 8.16, 34.14 5.86 C38.39 3.56, 34.26 6.47, 34.51 6.78" stroke="#862e9c" stroke-width="4" fill="none"></path></g><g transform="translate(51.47229994589202 131.65506858075827) rotate(0 21.47997283935547 12.5)"><text x="21.47997283935547" y="0" font-family="Virgil, Segoe UI Emoji" font-size="20px" fill="#862e9c" text-anchor="middle" style="white-space: pre;" direction="ltr" dominant-baseline="text-before-edge">Split</text></g><g stroke-linecap="round" transform="translate(144.5 95) rotate(0 72.5 48)"><path d="M91.25 12.25 M91.25 12.25 C100.29 21.66, 111.61 26.07, 126.75 36.75 M126.75 36.75 C144.47 48.18, 144.73 48.78, 126.75 61.25 M126.75 61.25 C119.84 68.03, 110.26 70.9, 91.25 83.75 M91.25 83.75 C74.53 97.3, 72.61 94.14, 54.75 83.75 M54.75 83.75 C39.05 76.24, 27.12 65.8, 18.25 61.25 M18.25 61.25 C-1.02 48.63, 0.45 48.14, 18.25 36.75 M18.25 36.75 C26.34 31.01, 38.83 22.56, 54.75 12.25 M54.75 12.25 C73.73 0.23, 72 -1.77, 91.25 12.25" stroke="#087f5b" stroke-width="4.5" fill="none" stroke-dasharray="8 12"></path></g><g transform="translate(187.65003204345703 130.5) rotate(0 29.59996795654297 12.5)"><text x="29.59996795654297" y="0" font-family="Virgil, Segoe UI Emoji" font-size="20px" fill="#087f5b" text-anchor="middle" style="white-space: pre;" direction="ltr" dominant-baseline="text-before-edge">Choice</text></g>
</svg>