<svg version="1.1" xmlns="http://www.w3.org/2000/svg" viewBox="0 0 894.8597814206032 927.5000000000002" width="894.8597814206032" height="927.5000000000002">
  <!-- svg-source:excalidraw -->
  
  <defs>
    <style class="style-fonts">
      @font-face {
        font-family: "Virgil";
        src: url("https://excalidraw.com/Virgil.woff2");
      }
      @font-face {
        font-family: "Cascadia";
        src: url("https://excalidraw.com/Cascadia.woff2");
      }
    </style>
  </defs>
  <g stroke-linecap="round" transform="translate(382.0847822789101 587.5000000000002) rotate(0 111 112)"><path d="M85.7 3.7 C97.78 -1.1, 113.57 -1.32, 126.9 0.48 C140.22 2.28, 154.05 8.02, 165.64 14.5 C177.24 20.98, 188.02 29.16, 196.47 39.34 C204.93 49.52, 212.2 62.53, 216.38 75.59 C220.56 88.65, 222.13 103.97, 221.57 117.69 C221 131.41, 218.15 145.62, 212.97 157.91 C207.79 170.2, 199.99 182.01, 190.5 191.43 C181.02 200.85, 168.27 209.17, 156.06 214.45 C143.85 219.73, 130.61 222.64, 117.25 223.12 C103.89 223.6, 88.86 221.31, 75.92 217.32 C62.98 213.34, 49.93 207.69, 39.61 199.2 C29.28 190.71, 20.53 178.25, 13.97 166.37 C7.41 154.49, 2.25 141.12, 0.26 127.92 C-1.73 114.73, -1.1 100.29, 2.03 87.2 C5.16 74.1, 11.3 60.56, 19.03 49.38 C26.77 38.2, 35.82 28.13, 48.43 20.14 C61.03 12.15, 85.33 4.31, 94.65 1.43 C103.97 -1.46, 103.91 0.96, 104.33 2.82" stroke="#0b7285" stroke-width="4.5" fill="none" stroke-dasharray="8 12"></path></g><g transform="translate(420.27093261896107 654.304040507107) rotate(0 72.82499694824219 45)"><text x="72.82499694824219" y="0" font-family="Virgil, Segoe UI Emoji" font-size="36px" fill="#0b7285" text-anchor="middle" style="white-space: pre;" direction="ltr" dominant-baseline="text-before-edge">Event</text><text x="72.82499694824219" y="45" font-family="Virgil, Segoe UI Emoji" font-size="36px" fill="#0b7285" text-anchor="middle" style="white-space: pre;" direction="ltr" dominant-baseline="text-before-edge">Manager</text></g><g stroke-linecap="round"><g transform="translate(587.0847822789101 632.5000000000002) rotate(0 37.719543156093096 -29.812076091086396)"><path d="M-0.93 -0.79 C11.47 -10.86, 61.36 -51.2, 74.12 -61.03 M0.79 1.4 C13.59 -8.49, 63.97 -50.08, 76.37 -60.03" stroke="#e67700" stroke-width="4" fill="none"></path></g><g transform="translate(587.0847822789101 632.5000000000002) rotate(0 37.719543156093096 -29.812076091086396)"><path d="M59.68 -35.74 C63.66 -40.25, 70 -46.61, 75.93 -60.45 M61.08 -33.57 C66.06 -40.76, 69.75 -47.98, 75.94 -60.06" stroke="#e67700" stroke-width="4" fill="none"></path></g><g transform="translate(587.0847822789101 632.5000000000002) rotate(0 37.719543156093096 -29.812076091086396)"><path d="M46.71 -51.64 C54.19 -51.67, 64.11 -53.64, 75.93 -60.45 M48.11 -49.48 C56.25 -52.74, 63.21 -55.95, 75.94 -60.06" stroke="#e67700" stroke-width="4" fill="none"></path></g></g><mask></mask><g stroke-linecap="round"><g transform="translate(608.3347822789101 715.0000000000002) rotate(0 63.7825202814397 13.385940585378648)"><path d="M-0.07 0.67 C21.49 4.73, 107.54 21.13, 129.13 25.17 M-1.56 -0.03 C19.89 4.18, 106.61 22.42, 128.38 26.8" stroke="#e67700" stroke-width="4" fill="none"></path></g><g transform="translate(608.3347822789101 715.0000000000002) rotate(0 63.7825202814397 13.385940585378648)"><path d="M99.8 31.79 C107.36 31.12, 115.39 27.14, 126.42 26.03 M98.84 30.64 C104.55 30.63, 111.44 29.51, 129.27 25.94" stroke="#e67700" stroke-width="4" fill="none"></path></g><g transform="translate(608.3347822789101 715.0000000000002) rotate(0 63.7825202814397 13.385940585378648)"><path d="M103.95 11.69 C110.46 16.71, 117.32 18.42, 126.42 26.03 M102.98 10.54 C107.65 14.95, 113.63 18.22, 129.27 25.94" stroke="#e67700" stroke-width="4" fill="none"></path></g></g><mask></mask><g stroke-linecap="round"><g transform="translate(563.3347822789101 795.0000000000002) rotate(0 49.174668051963636 42.802586101535724)"><path d="M0.06 -0.2 C16.54 14.21, 83.03 71.31, 99.72 85.71 M-1.37 -1.35 C14.86 13.28, 81.81 72.16, 98.63 86.96" stroke="#e67700" stroke-width="4" fill="none"></path></g><g transform="translate(563.3347822789101 795.0000000000002) rotate(0 49.174668051963636 42.802586101535724)"><path d="M70.35 75.57 C79.95 80.35, 90.93 84.53, 100.55 86.73 M70.06 75.78 C78.73 80.12, 84.8 81.27, 99.37 87.39" stroke="#e67700" stroke-width="4" fill="none"></path></g><g transform="translate(563.3347822789101 795.0000000000002) rotate(0 49.174668051963636 42.802586101535724)"><path d="M83.91 60.17 C88.44 70.6, 94.45 80.42, 100.55 86.73 M83.61 60.38 C88.83 68.7, 91.31 73.94, 99.37 87.39" stroke="#e67700" stroke-width="4" fill="none"></path></g></g><mask></mask><g transform="translate(697.484783804789 870.0000000000002) rotate(0 16.358333587646484 22.5)"><text x="0" y="0" font-family="Virgil, Segoe UI Emoji" font-size="36px" fill="#1864ab" text-anchor="start" style="white-space: pre;" direction="ltr" dominant-baseline="text-before-edge">h(</text></g><g transform="translate(734.2514502171425 871.2500000000002) rotate(0 38.54166793823242 22.5)"><text x="0" y="0" font-family="Virgil, Segoe UI Emoji" font-size="36px" fill="#e67700" text-anchor="start" style="white-space: pre;" direction="ltr" dominant-baseline="text-before-edge">args</text></g><g transform="translate(805.8681151036171 872.5000000000002) rotate(0 6.083333492279053 22.5)"><text x="0" y="0" font-family="Virgil, Segoe UI Emoji" font-size="36px" fill="#1864ab" text-anchor="start" style="white-space: pre;" direction="ltr" dominant-baseline="text-before-edge">)</text></g><g transform="translate(764.309783137217 702.5000000000002) rotate(0 16.483333587646484 22.5)"><text x="0" y="0" font-family="Virgil, Segoe UI Emoji" font-size="36px" fill="#1864ab" text-anchor="start" style="white-space: pre;" direction="ltr" dominant-baseline="text-before-edge">g(</text></g><g transform="translate(799.8264495495705 705.0000000000002) rotate(0 38.54166793823242 22.5)"><text x="0" y="0" font-family="Virgil, Segoe UI Emoji" font-size="36px" fill="#e67700" text-anchor="start" style="white-space: pre;" direction="ltr" dominant-baseline="text-before-edge">args</text></g><g transform="translate(872.6931144360451 705.0000000000002) rotate(0 6.083333492279053 22.5)"><text x="0" y="0" font-family="Virgil, Segoe UI Emoji" font-size="36px" fill="#1864ab" text-anchor="start" style="white-space: pre;" direction="ltr" dominant-baseline="text-before-edge">)</text></g><g transform="translate(686.809783137217 526.2500000000002) rotate(0 16.21666717529297 22.5)"><text x="0" y="0" font-family="Virgil, Segoe UI Emoji" font-size="36px" fill="#1864ab" text-anchor="start" style="white-space: pre;" direction="ltr" dominant-baseline="text-before-edge">f(</text></g><g transform="translate(723.5764495495705 530.0000000000002) rotate(0 38.54166793823242 22.5)"><text x="0" y="0" font-family="Virgil, Segoe UI Emoji" font-size="36px" fill="#e67700" text-anchor="start" style="white-space: pre;" direction="ltr" dominant-baseline="text-before-edge">args</text></g><g transform="translate(795.1931144360451 528.7500000000002) rotate(0 6.083333492279053 22.5)"><text x="0" y="0" font-family="Virgil, Segoe UI Emoji" font-size="36px" fill="#1864ab" text-anchor="start" style="white-space: pre;" direction="ltr" dominant-baseline="text-before-edge">)</text></g><g stroke-linecap="round"><g transform="translate(10.834782278910097 702.5000000000002) rotate(0 172.81123260268942 -1.855843829736159)"><path d="M-0.83 0.22 C56.7 -0.5, 286.57 -3.33, 344.18 -3.94 M0.93 -0.7 C58.93 -1.27, 289.29 -2.29, 346.46 -2.5" stroke="#e67700" stroke-width="4" fill="none"></path></g><g transform="translate(10.834782278910097 702.5000000000002) rotate(0 172.81123260268942 -1.855843829736159)"><path d="M318.68 6.51 C324.04 5.5, 330.95 4.63, 345.09 -3.69 M319.06 7.34 C325.97 3.99, 334.63 1.02, 346.96 -2.87" stroke="#e67700" stroke-width="4" fill="none"></path></g><g transform="translate(10.834782278910097 702.5000000000002) rotate(0 172.81123260268942 -1.855843829736159)"><path d="M318.6 -14.01 C324.04 -10.59, 330.97 -7.03, 345.09 -3.69 M318.97 -13.18 C325.75 -10.4, 334.43 -7.24, 346.96 -2.87" stroke="#e67700" stroke-width="4" fill="none"></path></g></g><mask></mask><g transform="translate(13.334782278910097 635.0000000000002) rotate(0 178.34165954589844 22.5)"><text x="0" y="0" font-family="Virgil, Segoe UI Emoji" font-size="36px" fill="#e67700" text-anchor="start" style="white-space: pre;" direction="ltr" dominant-baseline="text-before-edge">emit("hello", *args)  </text></g><g stroke-linecap="round" transform="translate(401.73967384751813 121.87499999999977) rotate(0 111 112)"><path d="M162.9 12.11 C175.12 16.65, 185.71 28.85, 194.58 39.04 C203.46 49.22, 211.51 60.58, 216.14 73.23 C220.76 85.88, 222.88 101.37, 222.33 114.93 C221.79 128.49, 217.95 142.11, 212.87 154.59 C207.78 167.07, 200.99 180.04, 191.83 189.8 C182.66 199.57, 169.98 207.63, 157.87 213.19 C145.77 218.76, 132.3 222.11, 119.2 223.18 C106.09 224.25, 91.88 223.45, 79.24 219.59 C66.6 215.73, 53.83 208.47, 43.34 200 C32.85 191.54, 23.35 180.31, 16.32 168.82 C9.29 157.33, 3.41 144.37, 1.17 131.07 C-1.06 117.77, 0.17 102.26, 2.93 89.02 C5.69 75.77, 10.69 62.96, 17.74 51.59 C24.79 40.21, 34.49 28.86, 45.21 20.79 C55.93 12.72, 69.11 6.57, 82.07 3.18 C95.03 -0.2, 108.49 -1.84, 123 0.47 C137.51 2.78, 160.61 13.33, 169.13 17.05 C177.64 20.78, 174.96 21.35, 174.09 22.81" stroke="#0b7285" stroke-width="4.5" fill="none" stroke-dasharray="8 12"></path></g><g transform="translate(439.9258241875691 188.6790405071065) rotate(0 72.82499694824219 45)"><text x="72.82499694824219" y="0" font-family="Virgil, Segoe UI Emoji" font-size="36px" fill="#0b7285" text-anchor="middle" style="white-space: pre;" direction="ltr" dominant-baseline="text-before-edge">Event</text><text x="72.82499694824219" y="45" font-family="Virgil, Segoe UI Emoji" font-size="36px" fill="#0b7285" text-anchor="middle" style="white-space: pre;" direction="ltr" dominant-baseline="text-before-edge">Manager</text></g><g transform="translate(190.8347822789101 10) rotate(0 102.73332977294922 20.700000000000045)"><text x="0" y="0" font-family="Helvetica, Segoe UI Emoji" font-size="36px" fill="#e67700" text-anchor="start" style="white-space: pre;" direction="ltr" dominant-baseline="text-before-edge">on("hello",   )</text></g><g transform="translate(362.0847822789101 10) rotate(0 5 20.700000000000045)"><text x="0" y="0" font-family="Helvetica, Segoe UI Emoji" font-size="36px" fill="#1864ab" text-anchor="start" style="white-space: pre;" direction="ltr" dominant-baseline="text-before-edge">f</text></g><g transform="translate(91.29311815537494 128.75) rotate(0 122.54166412353516 22.5)"><text x="0" y="0" font-family="Virgil, Segoe UI Emoji" font-size="36px" fill="#e67700" text-anchor="start" style="white-space: pre;" direction="ltr" dominant-baseline="text-before-edge">on("hello",    )</text></g><g transform="translate(260.04311815537494 127.5) rotate(0 18.016666412353516 22.5)"><text x="0" y="0" font-family="Virgil, Segoe UI Emoji" font-size="36px" fill="#1864ab" text-anchor="start" style="white-space: pre;" direction="ltr" dominant-baseline="text-before-edge">g </text></g><g transform="translate(97.54311815537494 296.25) rotate(0 122.54166412353516 22.5)"><text x="0" y="0" font-family="Virgil, Segoe UI Emoji" font-size="36px" fill="#e67700" text-anchor="start" style="white-space: pre;" direction="ltr" dominant-baseline="text-before-edge">on("hello",    )</text></g><g transform="translate(268.79311815537494 296.25) rotate(0 8.891666412353516 22.5)"><text x="0" y="0" font-family="Virgil, Segoe UI Emoji" font-size="36px" fill="#1864ab" text-anchor="start" style="white-space: pre;" direction="ltr" dominant-baseline="text-before-edge">h</text></g><g stroke-linecap="round"><g transform="translate(403.0683592619507 64.61859782272313) rotate(0 17.738283265716063 26.752707138994083)"><path d="M0.68 0.92 C6.2 9.85, 28 44.64, 33.78 53.15 M-0.41 0.35 C5.4 8.95, 30.02 42.51, 35.89 51.27" stroke="#e67700" stroke-width="4" fill="none"></path></g><g transform="translate(403.0683592619507 64.61859782272313) rotate(0 17.738283265716063 26.752707138994083)"><path d="M12.79 32.22 C20.72 40.81, 27.53 45.76, 34.56 50.87 M11.8 33.65 C16.39 37.23, 23.49 41.64, 36.73 52.03" stroke="#e67700" stroke-width="4" fill="none"></path></g><g transform="translate(403.0683592619507 64.61859782272313) rotate(0 17.738283265716063 26.752707138994083)"><path d="M29.56 20.4 C31.49 33.28, 32.34 42.43, 34.56 50.87 M28.57 21.83 C29.08 28.36, 32.17 35.59, 36.73 52.03" stroke="#e67700" stroke-width="4" fill="none"></path></g></g><mask></mask><g stroke-linecap="round"><g transform="translate(349.9000227714796 178.1077162102788) rotate(0 19.082862613507814 8.710387193641736)"><path d="M0.39 0.91 C6.93 3.72, 32.59 13.28, 39.03 15.94 M-0.87 0.33 C5.51 3.37, 31.47 14.09, 37.98 17.09" stroke="#e67700" stroke-width="4" fill="none"></path></g><g transform="translate(349.9000227714796 178.1077162102788) rotate(0 19.082862613507814 8.710387193641736)"><path d="M18.2 15.44 C21.46 15.72, 29.06 16.73, 36.53 15.74 M15.82 15.64 C20.69 15.1, 25.58 15.62, 38.41 17.65" stroke="#e67700" stroke-width="4" fill="none"></path></g><g transform="translate(349.9000227714796 178.1077162102788) rotate(0 19.082862613507814 8.710387193641736)"><path d="M24.01 2.07 C25.52 6.15, 31.48 10.95, 36.53 15.74 M21.63 2.26 C25.26 4.61, 28.92 7.98, 38.41 17.65" stroke="#e67700" stroke-width="4" fill="none"></path></g></g><mask></mask><g stroke-linecap="round"><g transform="translate(356.8347822789101 297.87711754709994) rotate(0 16.731989663495824 -5.96409699715548)"><path d="M0.28 -1.12 C5.98 -3.15, 28.77 -9.28, 34.49 -11.08 M-1.03 0.91 C4.55 -0.96, 28.06 -10.91, 33.95 -12.84" stroke="#e67700" stroke-width="4" fill="none"></path></g><g transform="translate(356.8347822789101 297.87711754709994) rotate(0 16.731989663495824 -5.96409699715548)"><path d="M18.79 0 C25.75 -3.69, 28.89 -10, 33.19 -12.8 M20.14 -1.32 C24.32 -4.96, 28.4 -7.85, 33.91 -12.41" stroke="#e67700" stroke-width="4" fill="none"></path></g><g transform="translate(356.8347822789101 297.87711754709994) rotate(0 16.731989663495824 -5.96409699715548)"><path d="M14.44 -11.42 C22.93 -11.39, 27.48 -13.98, 33.19 -12.8 M15.79 -12.74 C21.14 -13.12, 26.47 -12.73, 33.91 -12.41" stroke="#e67700" stroke-width="4" fill="none"></path></g></g><mask></mask><g transform="translate(240.8347822789101 466.25) rotate(0 162.64166259765625 22.5)"><text x="0" y="0" font-family="Virgil, Segoe UI Emoji" font-size="36px" fill="#c92a2a" text-anchor="start" style="white-space: pre;" direction="ltr" dominant-baseline="text-before-edge">... some time later</text></g></svg>